<mxfile host="Electron" agent="Mozilla/5.0 (Windows NT 10.0; Win64; x64) AppleWebKit/537.36 (KHTML, like Gecko) draw.io/28.2.7 Chrome/138.0.7204.251 Electron/37.7.1 Safari/537.36" version="28.2.7">
  <diagram name="Page-1" id="XBXUKJ66n549tjzyLUEm">
    <mxGraphModel dx="925" dy="607" grid="1" gridSize="10" guides="1" tooltips="1" connect="1" arrows="1" fold="1" page="1" pageScale="1" pageWidth="850" pageHeight="1100" math="0" shadow="0">
      <root>
        <mxCell id="0" />
        <mxCell id="1" parent="0" />
        <mxCell id="TKJPe4mWyCstmtdiBRWA-2" value="" style="whiteSpace=wrap;html=1;aspect=fixed;" vertex="1" parent="1">
          <mxGeometry x="300" y="70" width="40" height="40" as="geometry" />
        </mxCell>
        <mxCell id="TKJPe4mWyCstmtdiBRWA-3" value="" style="whiteSpace=wrap;html=1;aspect=fixed;" vertex="1" parent="1">
          <mxGeometry x="340" y="70" width="40" height="40" as="geometry" />
        </mxCell>
        <mxCell id="TKJPe4mWyCstmtdiBRWA-4" value="" style="whiteSpace=wrap;html=1;aspect=fixed;" vertex="1" parent="1">
          <mxGeometry x="380" y="70" width="40" height="40" as="geometry" />
        </mxCell>
        <mxCell id="TKJPe4mWyCstmtdiBRWA-5" value="" style="whiteSpace=wrap;html=1;aspect=fixed;" vertex="1" parent="1">
          <mxGeometry x="420" y="70" width="40" height="40" as="geometry" />
        </mxCell>
        <mxCell id="TKJPe4mWyCstmtdiBRWA-6" value="" style="whiteSpace=wrap;html=1;aspect=fixed;" vertex="1" parent="1">
          <mxGeometry x="460" y="70" width="40" height="40" as="geometry" />
        </mxCell>
        <mxCell id="TKJPe4mWyCstmtdiBRWA-7" value="" style="ellipse;whiteSpace=wrap;html=1;aspect=fixed;" vertex="1" parent="1">
          <mxGeometry x="540" y="30" width="40" height="40" as="geometry" />
        </mxCell>
        <mxCell id="TKJPe4mWyCstmtdiBRWA-8" value="" style="ellipse;whiteSpace=wrap;html=1;aspect=fixed;" vertex="1" parent="1">
          <mxGeometry x="540" y="70" width="40" height="40" as="geometry" />
        </mxCell>
        <mxCell id="TKJPe4mWyCstmtdiBRWA-9" value="" style="ellipse;whiteSpace=wrap;html=1;aspect=fixed;" vertex="1" parent="1">
          <mxGeometry x="540" y="110" width="40" height="40" as="geometry" />
        </mxCell>
        <mxCell id="TKJPe4mWyCstmtdiBRWA-10" value="Pool&lt;sub&gt;i&lt;/sub&gt;" style="text;html=1;align=center;verticalAlign=middle;resizable=0;points=[];autosize=1;strokeColor=none;fillColor=none;" vertex="1" parent="1">
          <mxGeometry x="380.5" y="40" width="50" height="30" as="geometry" />
        </mxCell>
        <mxCell id="TKJPe4mWyCstmtdiBRWA-11" value="CONCURRENT_QUERY_LIMIT = 10" style="text;whiteSpace=wrap;" vertex="1" parent="1">
          <mxGeometry x="610" y="80" width="330" height="20" as="geometry" />
        </mxCell>
        <mxCell id="TKJPe4mWyCstmtdiBRWA-12" value="" style="endArrow=classic;startArrow=classic;html=1;rounded=0;" edge="1" parent="1">
          <mxGeometry width="50" height="50" relative="1" as="geometry">
            <mxPoint x="600" y="150" as="sourcePoint" />
            <mxPoint x="600" y="30" as="targetPoint" />
          </mxGeometry>
        </mxCell>
        <mxCell id="TKJPe4mWyCstmtdiBRWA-13" value="" style="endArrow=none;html=1;rounded=0;" edge="1" parent="1">
          <mxGeometry width="50" height="50" relative="1" as="geometry">
            <mxPoint x="540" y="150" as="sourcePoint" />
            <mxPoint x="620" y="150" as="targetPoint" />
          </mxGeometry>
        </mxCell>
        <mxCell id="TKJPe4mWyCstmtdiBRWA-14" value="" style="endArrow=none;html=1;rounded=0;" edge="1" parent="1">
          <mxGeometry width="50" height="50" relative="1" as="geometry">
            <mxPoint x="540" y="30" as="sourcePoint" />
            <mxPoint x="620" y="30" as="targetPoint" />
          </mxGeometry>
        </mxCell>
        <mxCell id="TKJPe4mWyCstmtdiBRWA-15" value="" style="endArrow=none;html=1;rounded=0;entryX=0;entryY=0;entryDx=0;entryDy=0;" edge="1" parent="1" target="TKJPe4mWyCstmtdiBRWA-2">
          <mxGeometry width="50" height="50" relative="1" as="geometry">
            <mxPoint x="300" y="150" as="sourcePoint" />
            <mxPoint x="660" y="190" as="targetPoint" />
          </mxGeometry>
        </mxCell>
        <mxCell id="TKJPe4mWyCstmtdiBRWA-16" value="" style="endArrow=none;html=1;rounded=0;entryX=0;entryY=0;entryDx=0;entryDy=0;" edge="1" parent="1">
          <mxGeometry width="50" height="50" relative="1" as="geometry">
            <mxPoint x="500" y="150" as="sourcePoint" />
            <mxPoint x="500" y="70" as="targetPoint" />
          </mxGeometry>
        </mxCell>
        <mxCell id="TKJPe4mWyCstmtdiBRWA-17" value="" style="endArrow=classic;startArrow=classic;html=1;rounded=0;" edge="1" parent="1">
          <mxGeometry width="50" height="50" relative="1" as="geometry">
            <mxPoint x="300" y="140" as="sourcePoint" />
            <mxPoint x="500" y="140" as="targetPoint" />
          </mxGeometry>
        </mxCell>
        <mxCell id="TKJPe4mWyCstmtdiBRWA-18" value="QUEUE_SIZE=1000" style="text;whiteSpace=wrap;" vertex="1" parent="1">
          <mxGeometry x="341" y="150" width="99" height="20" as="geometry" />
        </mxCell>
        <mxCell id="TKJPe4mWyCstmtdiBRWA-19" value="" style="shape=cylinder3;whiteSpace=wrap;html=1;boundedLbl=1;backgroundOutline=1;size=15;" vertex="1" parent="1">
          <mxGeometry x="300.5" y="250" width="160" height="130" as="geometry" />
        </mxCell>
        <mxCell id="TKJPe4mWyCstmtdiBRWA-20" value="" style="rounded=0;whiteSpace=wrap;html=1;" vertex="1" parent="1">
          <mxGeometry x="305.5" y="300" width="145" height="20" as="geometry" />
        </mxCell>
        <mxCell id="TKJPe4mWyCstmtdiBRWA-21" value="70%" style="rounded=0;whiteSpace=wrap;html=1;fillColor=#fff2cc;strokeColor=#d6b656;align=right;" vertex="1" parent="1">
          <mxGeometry x="305.5" y="300" width="115" height="20" as="geometry" />
        </mxCell>
        <mxCell id="TKJPe4mWyCstmtdiBRWA-22" value="DATABASE_LOAD_CPU_THRESHOLD=50" style="text;whiteSpace=wrap;" vertex="1" parent="1">
          <mxGeometry x="285.5" y="210" width="240" height="40" as="geometry" />
        </mxCell>
        <mxCell id="TKJPe4mWyCstmtdiBRWA-23" value="Actor" style="shape=umlActor;verticalLabelPosition=bottom;verticalAlign=top;html=1;outlineConnect=0;" vertex="1" parent="1">
          <mxGeometry x="50" y="60" width="30" height="60" as="geometry" />
        </mxCell>
        <mxCell id="TKJPe4mWyCstmtdiBRWA-24" value="" style="endArrow=classic;html=1;rounded=0;" edge="1" parent="1">
          <mxGeometry width="50" height="50" relative="1" as="geometry">
            <mxPoint x="100" y="90" as="sourcePoint" />
            <mxPoint x="270" y="90" as="targetPoint" />
          </mxGeometry>
        </mxCell>
        <mxCell id="TKJPe4mWyCstmtdiBRWA-25" value="SELECT * FROM table" style="edgeLabel;html=1;align=center;verticalAlign=middle;resizable=0;points=[];" vertex="1" connectable="0" parent="TKJPe4mWyCstmtdiBRWA-24">
          <mxGeometry x="-0.0545" relative="1" as="geometry">
            <mxPoint y="-20" as="offset" />
          </mxGeometry>
        </mxCell>
        <mxCell id="TKJPe4mWyCstmtdiBRWA-26" value="Pool&lt;sub&gt;i&lt;/sub&gt;" style="edgeLabel;html=1;align=center;verticalAlign=middle;resizable=0;points=[];" vertex="1" connectable="0" parent="TKJPe4mWyCstmtdiBRWA-24">
          <mxGeometry x="0.0235" y="2" relative="1" as="geometry">
            <mxPoint x="-17" y="12" as="offset" />
          </mxGeometry>
        </mxCell>
        <mxCell id="TKJPe4mWyCstmtdiBRWA-27" value="" style="endArrow=none;html=1;rounded=0;exitX=0.75;exitY=0;exitDx=0;exitDy=0;entryX=0.557;entryY=0.769;entryDx=0;entryDy=0;entryPerimeter=0;" edge="1" parent="1" source="TKJPe4mWyCstmtdiBRWA-21" target="TKJPe4mWyCstmtdiBRWA-19">
          <mxGeometry width="50" height="50" relative="1" as="geometry">
            <mxPoint x="370.5" y="210" as="sourcePoint" />
            <mxPoint x="420.5" y="160" as="targetPoint" />
          </mxGeometry>
        </mxCell>
        <mxCell id="TKJPe4mWyCstmtdiBRWA-28" value="" style="endArrow=none;html=1;rounded=0;exitX=0.75;exitY=0;exitDx=0;exitDy=0;entryX=0.557;entryY=0.769;entryDx=0;entryDy=0;entryPerimeter=0;" edge="1" parent="1">
          <mxGeometry width="50" height="50" relative="1" as="geometry">
            <mxPoint x="305.5" y="300" as="sourcePoint" />
            <mxPoint x="305.5" y="350" as="targetPoint" />
          </mxGeometry>
        </mxCell>
        <mxCell id="TKJPe4mWyCstmtdiBRWA-29" value="" style="endArrow=classic;startArrow=classic;html=1;rounded=0;" edge="1" parent="1">
          <mxGeometry width="50" height="50" relative="1" as="geometry">
            <mxPoint x="308.5" y="344" as="sourcePoint" />
            <mxPoint x="388.5" y="344" as="targetPoint" />
          </mxGeometry>
        </mxCell>
        <mxCell id="TKJPe4mWyCstmtdiBRWA-30" value="50%" style="edgeLabel;html=1;align=center;verticalAlign=middle;resizable=0;points=[];" vertex="1" connectable="0" parent="TKJPe4mWyCstmtdiBRWA-29">
          <mxGeometry x="0.04" y="1" relative="1" as="geometry">
            <mxPoint as="offset" />
          </mxGeometry>
        </mxCell>
      </root>
    </mxGraphModel>
  </diagram>
</mxfile>
